<svg width="28" height="28" viewBox="0 0 28 28" fill="none" xmlns="http://www.w3.org/2000/svg">
<path d="M4.9456 1.05859C3.87876 1.05859 3 1.93735 3 3.0042V25.0544C3 26.1212 3.87876 27 4.9456 27H23.1046C24.1714 27 25.0502 26.1212 25.0502 25.0544V8.84101H19.2134C18.1465 8.84101 17.2678 7.96225 17.2678 6.89541V1.05859H4.9456ZM18.5648 1.4386V6.89541C18.5648 7.26127 18.8475 7.54394 19.2134 7.54394H24.6702L18.5648 1.4386ZM8.51255 7.54394H14.3494C14.4345 7.54394 14.5189 7.56072 14.5975 7.59331C14.6762 7.6259 14.7477 7.67367 14.8079 7.7339C14.8682 7.79412 14.9159 7.86561 14.9485 7.9443C14.9811 8.02298 14.9979 8.10731 14.9979 8.19248C14.9979 8.36448 14.9296 8.52944 14.8079 8.65106C14.6863 8.77269 14.5214 8.84101 14.3494 8.84101H8.51255C8.34055 8.84101 8.17559 8.77269 8.05396 8.65106C7.93234 8.52944 7.86401 8.36448 7.86401 8.19248C7.86401 8.10731 7.88079 8.02298 7.91338 7.9443C7.94597 7.86561 7.99374 7.79412 8.05396 7.7339C8.11419 7.67367 8.18568 7.6259 8.26436 7.59331C8.34305 7.56072 8.42738 7.54394 8.51255 7.54394ZM8.51255 11.4352H19.5376C19.7096 11.4352 19.8746 11.5035 19.9962 11.6251C20.1178 11.7467 20.1862 11.9117 20.1862 12.0837C20.1862 12.2557 20.1178 12.4206 19.9962 12.5423C19.8746 12.6639 19.7096 12.7322 19.5376 12.7322H8.51255C8.34055 12.7322 8.17559 12.6639 8.05396 12.5423C7.93234 12.4206 7.86401 12.2557 7.86401 12.0837C7.86401 11.9117 7.93234 11.7467 8.05396 11.6251C8.17559 11.5035 8.34055 11.4352 8.51255 11.4352ZM8.51255 15.3264H19.5376C19.7096 15.3264 19.8746 15.3947 19.9962 15.5163C20.1178 15.6379 20.1862 15.8029 20.1862 15.9749C20.1862 16.1469 20.1178 16.3119 19.9962 16.4335C19.8746 16.5551 19.7096 16.6234 19.5376 16.6234H8.51255C8.34055 16.6234 8.17559 16.5551 8.05396 16.4335C7.93234 16.3119 7.86401 16.1469 7.86401 15.9749C7.86401 15.8029 7.93234 15.6379 8.05396 15.5163C8.17559 15.3947 8.34055 15.3264 8.51255 15.3264ZM8.51255 19.2176H19.5376C19.7096 19.2176 19.8746 19.2859 19.9962 19.4075C20.1178 19.5292 20.1862 19.6941 20.1862 19.8661C20.1862 20.0381 20.1178 20.2031 19.9962 20.3247C19.8746 20.4463 19.7096 20.5146 19.5376 20.5146H8.51255C8.34055 20.5146 8.17559 20.4463 8.05396 20.3247C7.93234 20.2031 7.86401 20.0381 7.86401 19.8661C7.86401 19.6941 7.93234 19.5292 8.05396 19.4075C8.17559 19.2859 8.34055 19.2176 8.51255 19.2176Z" fill="white"/>
</svg>
