<svg width="28" height="28" viewBox="0 0 28 28" fill="none" xmlns="http://www.w3.org/2000/svg">
<g clip-path="url(#clip0_11332_41820)">
<path d="M10.6675 13.1301V13.1211C9.62091 13.1211 8.77637 13.9863 8.77637 15.0496C8.77637 16.1129 9.62091 16.9781 10.6675 16.9781C11.714 16.9781 12.5586 16.113 12.5586 15.0586C12.5586 13.9952 11.7048 13.1301 10.6675 13.1301Z" fill="white"/>
<path d="M14 0.328125C6.44924 0.328125 0.328125 6.44924 0.328125 14C0.328125 21.5508 6.44924 27.6719 14 27.6719C21.5508 27.6719 27.6719 21.5508 27.6719 14C27.6719 6.44924 21.5508 0.328125 14 0.328125ZM19.0583 21.2139C19.0583 21.2139 18.3695 20.4477 17.874 19.772C20.2608 19.0961 21.1607 17.7444 21.1607 17.7444C18.6791 19.2788 16.3614 19.8691 14 19.7924C11.6386 19.869 9.32094 19.2788 6.83955 17.7444C6.83955 17.7444 7.73916 19.0961 10.1263 19.772C9.63058 20.4479 8.94206 21.2139 8.94206 21.2139C4.84745 21.1238 3.25937 18.6185 3.1675 18.7266C3.1675 13.1485 5.87563 8.6065 5.87563 8.6065C8.29916 6.86744 10.5575 6.79514 10.9889 6.78612L11.2644 7.04747C8.17064 7.91257 6.67428 9.26434 6.67428 9.26434C9.32952 7.98186 11.8321 7.53074 14 7.50373C16.1679 7.53107 18.6703 7.98186 21.3257 9.26434C21.3257 9.26434 19.8294 7.91257 16.7357 7.04747L17.0111 6.78612C17.4426 6.79514 19.7008 6.86722 22.1244 8.6065C22.1244 8.6065 24.8324 13.1484 24.8324 18.7266C24.7406 18.6185 23.1526 21.1238 19.0583 21.2139Z" fill="white"/>
<path d="M17.3326 13.1211V13.1301C16.2952 13.1301 15.4414 13.9953 15.4414 15.0586C15.4414 16.113 16.2861 16.9781 17.3326 16.9781C18.3791 16.9781 19.2236 16.113 19.2236 15.0496C19.2236 13.9862 18.3791 13.1211 17.3326 13.1211Z" fill="white"/>
</g>
<defs>
<clipPath id="clip0_11332_41820">
<rect width="28" height="28" fill="white"/>
</clipPath>
</defs>
</svg>
