<svg width="28" height="28" viewBox="0 0 28 28" fill="none" xmlns="http://www.w3.org/2000/svg">
<g clip-path="url(#clip0_10901_39734)">
<path fill-rule="evenodd" clip-rule="evenodd" d="M28 14C28 21.732 21.732 28 14 28C6.26801 28 0 21.732 0 14C0 6.26801 6.26801 0 14 0C21.732 0 28 6.26801 28 14ZM14.5017 10.3352C13.14 10.9015 10.4185 12.0738 6.33719 13.8519C5.67445 14.1155 5.32728 14.3733 5.29568 14.6254C5.24226 15.0515 5.77581 15.2193 6.50237 15.4477C6.6012 15.4788 6.7036 15.511 6.80857 15.5451C7.52339 15.7775 8.48494 16.0493 8.98482 16.0601C9.43825 16.0699 9.94433 15.883 10.5031 15.4993C14.3163 12.9252 16.2848 11.6242 16.4083 11.5961C16.4955 11.5763 16.6163 11.5515 16.6982 11.6242C16.7801 11.697 16.772 11.8348 16.7633 11.8717C16.7105 12.0971 14.6161 14.0442 13.5323 15.0518C13.1944 15.3659 12.9547 15.5888 12.9057 15.6396C12.796 15.7536 12.6841 15.8615 12.5766 15.9651C11.9125 16.6053 11.4145 17.0854 12.6042 17.8693C13.1759 18.2461 13.6334 18.5576 14.0897 18.8684C14.5882 19.2078 15.0853 19.5464 15.7285 19.968C15.8924 20.0754 16.0489 20.187 16.2013 20.2957C16.7814 20.7092 17.3025 21.0807 17.9463 21.0215C18.3204 20.987 18.7069 20.6353 18.9031 19.5861C19.3669 17.1067 20.2785 11.7346 20.4892 9.52087C20.5077 9.32692 20.4845 9.0787 20.4658 8.96974C20.4472 8.86078 20.4082 8.70553 20.2666 8.5906C20.0988 8.4545 19.8399 8.42579 19.7241 8.42783C19.1975 8.43711 18.3896 8.71802 14.5017 10.3352Z" fill="white"/>
</g>
<defs>
<clipPath id="clip0_10901_39734">
<rect width="28" height="28" fill="white"/>
</clipPath>
</defs>
</svg>
