<svg width="160" height="36" viewBox="0 0 160 36" fill="none" xmlns="http://www.w3.org/2000/svg">
<path d="M31.4914 7.13498L21.0349 1.096C19.2783 0.0773756 17.0851 0.0773756 15.3285 1.096L4.87205 7.13498C3.11545 8.1536 2.01367 10.0453 2.01367 12.0826V24.1501C2.01367 24.8465 2.1384 25.5222 2.38786 26.177C2.85559 27.4035 3.73909 28.4429 4.87205 29.0977L15.3285 35.1263C16.212 35.6356 17.1995 35.8851 18.1869 35.8851C19.1743 35.8851 20.1618 35.6356 21.0453 35.1263L31.4914 29.0977C31.6681 28.9938 31.8344 28.8899 31.9799 28.7859C33.4662 27.7153 34.3497 25.9899 34.3497 24.1501V12.0722C34.3497 10.0453 33.2584 8.14321 31.4914 7.13498Z" fill="#2C374A"/>
<path d="M5.73442 28.7865L2.54343 26.7181C2.47067 26.6765 2.46028 26.583 2.50186 26.5102L13.6755 9.28719C14.1121 8.61157 15.0164 8.41408 15.692 8.86102L17.7812 10.2123C17.854 10.2538 17.8643 10.3474 17.8228 10.4201L5.94231 28.7346C5.89034 28.8073 5.79679 28.8281 5.73442 28.7865Z" fill="#2299C4"/>
<path fill-rule="evenodd" clip-rule="evenodd" d="M15.6633 8.90362C15.0121 8.47285 14.1403 8.66299 13.7192 9.31465L2.54631 26.5364C2.51499 26.5924 2.52939 26.6495 2.56922 26.6722L2.57048 26.673L5.7627 28.7422L5.76326 28.7425C5.79776 28.7656 5.86047 28.7581 5.89939 28.7045L17.7783 10.3924C17.8096 10.3365 17.7952 10.2794 17.7554 10.2566L17.7542 10.2559L15.6638 8.90392L15.6633 8.90362ZM15.7205 8.8168C15.0204 8.35385 14.0839 8.55873 13.6319 9.25824L2.45747 26.4824L2.45674 26.4837C2.406 26.5725 2.41219 26.7011 2.5163 26.7617L5.7056 28.829C5.7057 28.8291 5.7058 28.8292 5.7059 28.8292C5.79591 28.889 5.9196 28.855 5.9846 28.764L5.98528 28.7631L17.8672 10.4464L17.8679 10.4452C17.9186 10.3564 17.9124 10.2277 17.8083 10.1672L15.7207 8.81693C15.7206 8.81689 15.7205 8.81684 15.7205 8.8168Z" fill="#2299C4"/>
<path d="M10.9424 31.5926L7.50195 29.3579L14.0606 19.2548C14.1542 19.1093 14.3413 19.0677 14.4868 19.1613L17.4075 21.053C17.5531 21.1465 17.5946 21.3336 17.5011 21.4792L10.9424 31.5926Z" fill="#2299C4"/>
<path fill-rule="evenodd" clip-rule="evenodd" d="M14.4582 19.2042C14.3371 19.1264 14.1821 19.1606 14.104 19.2822L14.1038 19.2824L7.57345 29.3419L10.9267 31.52L17.457 21.4503M14.4582 19.2042C14.4582 19.2042 14.4583 19.2042 14.4583 19.2042L14.4582 19.2042ZM14.0166 19.2259C14.1256 19.0565 14.3447 19.0076 14.5145 19.1168L14.5147 19.1169L17.4353 21.0085C17.4353 21.0086 17.4353 21.0086 17.4353 21.0086C17.6047 21.1175 17.6536 21.3367 17.5444 21.5065L17.5443 21.5067L10.9573 31.6638L7.42969 29.3724L14.0165 19.226C14.0166 19.2259 14.0166 19.2259 14.0166 19.2259Z" fill="#2299C4"/>
<path d="M22.1266 28.0478C21.1288 28.0478 20.1517 27.8295 19.237 27.4034C18.7797 27.1955 18.6238 26.6238 18.894 26.1976L20.2868 24.0149C20.4947 23.6927 20.9001 23.5264 21.2639 23.6511C21.7316 23.807 22.2305 23.8382 22.7191 23.7342C23.4155 23.5783 24.0183 23.1626 24.4029 22.5597C24.7875 21.9569 24.9122 21.2397 24.7563 20.5329C24.6004 19.8365 24.1846 19.2336 23.5818 18.849L17.5636 14.9408C17.1894 14.7018 17.0855 14.2028 17.3245 13.8287L18.7485 11.6251C18.9876 11.2509 19.4865 11.147 19.8607 11.386L25.8685 15.2838C27.7706 16.4999 28.9659 18.558 29.0595 20.907C29.101 21.8633 28.9243 22.83 28.5502 23.7239C27.6459 25.8858 25.8373 27.393 23.6234 27.8815C23.1348 27.9958 22.6359 28.0478 22.1266 28.0478Z" fill="white"/>
<path fill-rule="evenodd" clip-rule="evenodd" d="M19.8328 11.4309C19.4822 11.2071 19.0157 11.3049 18.7925 11.6543L18.7924 11.6545L17.3685 13.8578C17.3685 13.8578 17.3685 13.8579 17.3684 13.8579C17.1445 14.2085 17.2424 14.675 17.5918 14.8982L17.5921 14.8984L23.6099 18.8064C23.61 18.8064 23.61 18.8064 23.6101 18.8065C24.2247 19.1986 24.6484 19.8132 24.8072 20.5227L24.8073 20.5228C24.9661 21.2429 24.839 21.9742 24.4469 22.5888C24.0548 23.2035 23.4401 23.6273 22.7306 23.7861L22.7301 23.7863C22.2323 23.8922 21.724 23.8604 21.2477 23.7016L21.2472 23.7014C20.9087 23.5854 20.5273 23.7396 20.3308 24.0441C20.3308 24.0442 20.3307 24.0442 20.3307 24.0442L18.9381 26.2267C18.6839 26.6276 18.8316 27.1631 19.2587 27.3572L19.2592 27.3574C20.1671 27.7804 21.1367 27.997 22.1268 27.997C22.6326 27.997 23.1275 27.9454 23.6117 27.8321L23.6124 27.8319C25.8095 27.3471 27.6045 25.8516 28.5024 23.705L28.5024 23.705C28.8737 22.8179 29.049 21.8589 29.0077 20.9105L29.0077 20.9103C28.9149 18.578 27.7284 16.5357 25.8407 15.3288L25.8404 15.3286L19.8329 11.431C19.8329 11.431 19.8328 11.431 19.8328 11.4309ZM18.705 11.5982C18.9599 11.1993 19.4911 11.0893 19.8889 11.3434L19.8892 11.3436L25.8967 15.2412C27.8132 16.4666 29.0174 18.5402 29.1116 20.9061C29.1535 21.8701 28.9753 22.8444 28.5983 23.7451C27.6876 25.9223 25.8657 27.441 23.6351 27.9333C23.1424 28.0486 22.6396 28.101 22.1268 28.101C21.1214 28.101 20.137 27.881 19.2156 27.4518C18.7281 27.2301 18.5641 26.6223 18.8503 26.171L18.8504 26.1709L20.2432 23.9881L20.2434 23.9879C20.4626 23.6481 20.8918 23.4698 21.2808 23.603C21.7397 23.756 22.229 23.7865 22.7082 23.6847C23.3913 23.5316 23.9823 23.1239 24.3593 22.5329C24.7363 21.9419 24.8587 21.2389 24.7058 20.5454C24.5528 19.8621 24.1451 19.271 23.554 18.894L23.5537 18.8938L17.5358 14.9858C17.5357 14.9858 17.5357 14.9857 17.5356 14.9857C17.1368 14.7308 17.0268 14.1996 17.2809 13.8019L17.2811 13.8016L18.7049 11.5983C18.7049 11.5983 18.705 11.5982 18.705 11.5982Z" fill="white"/>
<path d="M18 36C17.0125 36 16.0251 35.7505 15.1416 35.2412L4.49803 29.0983C3.36507 28.4435 2.48157 27.4041 2.01383 26.1776C1.76438 25.5331 1.63965 24.8471 1.63965 24.1507V11.8545C1.63965 9.81723 2.73103 7.92551 4.49803 6.90688L15.1416 0.763967C16.9086 -0.254656 19.0914 -0.254656 20.8584 0.763967L31.5019 6.90688C33.2689 7.92551 34.3603 9.81723 34.3603 11.8545V24.1403C34.3603 25.9697 33.4768 27.7055 31.9904 28.7761C31.8449 28.88 31.6786 28.984 31.5019 29.0879L20.8584 35.2308C19.9749 35.7401 18.9874 36 18 36ZM18 2.03204C17.3659 2.03204 16.7319 2.19835 16.1602 2.52057L5.51665 8.66349C4.38369 9.31832 3.67689 10.5344 3.67689 11.8545V24.1403C3.67689 24.5873 3.76004 25.0238 3.91595 25.4396C4.21738 26.2295 4.78906 26.9052 5.51665 27.3209L16.1602 33.4638C17.2932 34.1187 18.7068 34.1187 19.8397 33.4638L30.4833 27.3313C30.5976 27.2689 30.7016 27.1962 30.7847 27.1338C31.7514 26.4374 32.3231 25.3252 32.3231 24.1403V11.8545C32.3231 10.5448 31.6163 9.31832 30.4833 8.66349L19.8397 2.52057C19.2785 2.19835 18.634 2.03204 18 2.03204Z" fill="#96BAD2"/>
<path d="M40 5.5H50.3C54.8598 5.5 58.2243 9.09246 58.2243 13.9511C58.2243 18.8098 54.8598 22.4022 50.3 22.4022H44.058V30.1466H40V5.5ZM44.0433 9.53416V18.3681H49.7393C52.4545 18.3681 54.1958 16.616 54.1958 13.9511C54.1958 11.2421 52.484 9.53416 49.7688 9.53416H44.0433Z" fill="white"/>
<path d="M61.2345 30.1473V13.0242H65.2778V14.9824C66.4435 13.6131 68.2291 12.6855 70.4278 12.6855V16.5136C70.295 16.4841 70.1179 16.4841 69.9851 16.4841C67.4175 16.4841 65.2778 18.2951 65.2778 20.9011V30.1473H61.2345Z" fill="white"/>
<path d="M80.0787 12.6855C84.9484 12.6855 88.2833 16.2486 88.2833 21.3428C88.2833 21.9906 88.1801 22.7121 88.1063 23.404H75.3419C76.0354 25.5242 77.9538 26.8345 80.4919 26.8345C82.1446 26.8345 83.7236 26.2456 84.7418 25.1267L87.3094 27.6885C85.6567 29.4994 83.2661 30.5006 80.4476 30.5006C75.2681 30.5006 71.3134 26.6284 71.3134 21.5931C71.3281 16.5577 75.1058 12.6855 80.0787 12.6855ZM75.2681 20.2533H84.4614C84.122 17.8239 82.2922 16.3222 80.0049 16.3222C77.6439 16.3222 75.6223 17.8976 75.2681 20.2533Z" fill="white"/>
<path d="M98.982 12.6849C101.151 12.6849 103.129 13.8186 104.265 15.1437V5.5H108.323V30.1466H104.28V27.9529C103.143 29.3516 101.151 30.4853 98.9967 30.4853C94.0828 30.4853 90.4822 26.4806 90.4822 21.5777C90.4675 16.6896 94.0828 12.6849 98.982 12.6849ZM94.5255 21.5925C94.5255 24.2574 96.7242 26.4511 99.3952 26.4511C102.066 26.4511 104.265 24.2574 104.265 21.5925C104.265 18.9276 102.066 16.7338 99.3952 16.7338C96.7242 16.7191 94.5255 18.9128 94.5255 21.5925Z" fill="white"/>
<path d="M116.35 13.0234V22.4757C116.35 25.3173 117.855 26.6866 120.025 26.6866C122.356 26.6866 124.171 24.9345 124.171 22.2696V13.0234H128.214V30.1465H124.171V28.2914C122.902 29.6312 121.043 30.4852 119.021 30.4852C115.037 30.4852 112.292 27.673 112.292 23.3297V13.0234H116.35Z" fill="white"/>
<path d="M132.199 13.0242H136.242V14.8793C137.511 13.5395 139.371 12.6855 141.392 12.6855C144.004 12.6855 146.055 13.8781 147.162 15.9099C148.711 13.9517 150.526 12.6855 153.271 12.6855C157.255 12.6855 160 15.4977 160 19.841V30.1473H155.957V20.695C155.957 17.8239 154.452 16.4841 152.282 16.4841C149.951 16.4841 148.136 18.192 148.136 20.8275V30.1473H144.093V20.695C144.093 17.8239 142.587 16.4841 140.418 16.4841C138.087 16.4841 136.272 18.192 136.272 20.9011V30.1473H132.228V13.0242H132.199Z" fill="white"/>
</svg>
