<svg width="285" height="60" viewBox="0 0 285 60" fill="none" xmlns="http://www.w3.org/2000/svg">
<path d="M0 0.375H24.4106C35.217 0.375 43.1907 8.88896 43.1907 20.4037C43.1907 31.9185 35.217 40.4325 24.4106 40.4325H9.61736V58.7864H0V0.375ZM9.5824 9.93576V30.8717H23.0817C29.5166 30.8717 33.6433 26.7194 33.6433 20.4037C33.6433 13.9834 29.5865 9.93576 23.1516 9.93576H9.5824Z" fill="white"/>
<path d="M50.3245 58.7877V18.2068H59.9068V22.8476C62.6696 19.6026 66.9013 17.4043 72.1122 17.4043V26.4765C71.7974 26.4068 71.3777 26.4068 71.063 26.4068C64.9778 26.4068 59.9068 30.6986 59.9068 36.8747V58.7877H50.3245Z" fill="white"/>
<path d="M94.985 17.4043C106.526 17.4043 114.43 25.8485 114.43 37.9215C114.43 39.4569 114.185 41.1666 114.01 42.8066H83.759C85.4027 47.8312 89.9491 50.9367 95.9643 50.9367C99.8812 50.9367 103.623 49.541 106.036 46.8891L112.121 52.9606C108.205 57.2524 102.539 59.6252 95.8593 59.6252C83.5841 59.6252 74.2115 50.4482 74.2115 38.5147C74.2465 26.5812 83.1994 17.4043 94.985 17.4043ZM83.5841 35.3394H105.372C104.567 29.5821 100.231 26.0229 94.8102 26.0229C89.2146 26.0229 84.4234 29.7565 83.5841 35.3394Z" fill="white"/>
<path d="M139.784 17.4029C144.925 17.4029 149.612 20.0897 152.304 23.2301V0.375H161.922V58.7864H152.339V53.5873C149.647 56.9021 144.925 59.5889 139.819 59.5889C128.174 59.5889 119.64 50.0979 119.64 38.4785C119.605 26.8939 128.174 17.4029 139.784 17.4029ZM129.223 38.5134C129.223 44.829 134.434 50.0281 140.764 50.0281C147.094 50.0281 152.304 44.829 152.304 38.5134C152.304 32.1977 147.094 26.9986 140.764 26.9986C134.434 26.9637 129.223 32.1628 129.223 38.5134Z" fill="white"/>
<path d="M180.946 18.2051V40.6066C180.946 47.341 184.513 50.586 189.654 50.586C195.18 50.586 199.482 46.4337 199.482 40.1181V18.2051H209.064V58.786H199.482V54.3894C196.474 57.5647 192.067 59.5885 187.276 59.5885C177.834 59.5885 171.329 52.9239 171.329 42.6304V18.2051H180.946Z" fill="white"/>
<path d="M218.507 18.2068H228.089V22.6034C231.097 19.4281 235.503 17.4043 240.295 17.4043C246.485 17.4043 251.346 20.2307 253.969 25.0459C257.641 20.4051 261.942 17.4043 268.447 17.4043C277.89 17.4043 284.394 24.0689 284.394 34.3624V58.7877H274.812V36.3862C274.812 29.5821 271.245 26.4068 266.104 26.4068C260.578 26.4068 256.277 30.4544 256.277 36.7003V58.7877H246.694V36.3862C246.694 29.5821 243.127 26.4068 237.986 26.4068C232.461 26.4068 228.159 30.4544 228.159 36.8747V58.7877H218.577V18.2068H218.507Z" fill="white"/>
</svg>
